<svg width="25" height="24" viewBox="0 0 25 24" fill="none" xmlns="http://www.w3.org/2000/svg">
<path d="M15 5.375V4H4V5.375H7.78125C8.54005 5.37723 9.27144 5.65886 9.83577 6.16612C10.4001 6.67338 10.7578 7.37073 10.8406 8.125H4V9.5H10.8406C10.7578 10.2543 10.4001 10.9516 9.83577 11.4589C9.27144 11.9661 8.54005 12.2478 7.78125 12.25H4V13.8622L10.6117 19.8125L11.5316 18.7909L5.79162 13.625H7.78125C8.90606 13.6234 9.98894 13.1979 10.814 12.4333C11.639 11.6688 12.1457 10.6214 12.2328 9.5H15V8.125H12.2328C12.1539 7.09268 11.7175 6.12018 10.9988 5.375H15Z" fill="url(#paint0_linear_27_136)"/>
<path d="M20.5 19.4063C20.5 19.6824 20.7239 19.9063 21 19.9062C21.2761 19.9062 21.5 19.6824 21.5 19.4062L20.5 19.4063ZM21.3536 4.0527C21.1583 3.85743 20.8417 3.85743 20.6464 4.0527L17.4645 7.23468C17.2692 7.42994 17.2692 7.74652 17.4645 7.94178C17.6597 8.13705 17.9763 8.13705 18.1716 7.94178L21 5.11336L23.8284 7.94178C24.0237 8.13704 24.3403 8.13704 24.5355 7.94178C24.7308 7.74652 24.7308 7.42994 24.5355 7.23468L21.3536 4.0527ZM21.5 19.4062L21.5 4.40625L20.5 4.40625L20.5 19.4063L21.5 19.4062Z" fill="url(#paint1_linear_27_136)"/>
<defs>
<linearGradient id="paint0_linear_27_136" x1="4.1869" y1="3.99999" x2="15.2341" y2="4.17676" gradientUnits="userSpaceOnUse">
<stop stop-color="#FF7373"/>
<stop offset="0.966714" stop-color="#491EB8"/>
</linearGradient>
<linearGradient id="paint1_linear_27_136" x1="21" y1="19.1514" x2="25.6459" y2="5.68603" gradientUnits="userSpaceOnUse">
<stop stop-color="#FF7373"/>
<stop offset="0.966714" stop-color="#491EB8"/>
</linearGradient>
</defs>
</svg>
